<svg xmlns="http://www.w3.org/2000/svg" width="1650" height="500" viewBox="0 0 1650 500"><rect width="100%" height="100%" fill="#DDDDDD"/><path fill="#999999" d="M399.025 302.18h25.22v17.95h-77.6v-17.95h28.42v-81.77q0-4.85.29-9.99l-20.17 16.88q-1.75 1.36-3.44 1.7-1.7.34-3.21.05-1.5-.29-2.66-1.02-1.17-.73-1.75-1.6l-7.57-10.38 42.78-36.38h19.69zm129.6-122.31-41.62 50.92-4.85 6.02q4.08-2.04 8.78-3.16 4.7-1.11 10.14-1.11 7.95 0 15.47 2.62t13.24 7.9q5.72 5.29 9.21 13.15 3.5 7.85 3.5 18.33 0 9.8-3.59 18.38-3.59 8.59-10.09 14.99T513.145 318q-9.16 3.68-20.22 3.68-11.25 0-20.18-3.59-8.92-3.59-15.23-10.04-6.3-6.45-9.65-15.52-3.34-9.07-3.34-20.12 0-9.9 4.02-20.33 4.03-10.42 12.47-21.68l33.46-44.91q1.75-2.32 5.09-3.97 3.35-1.65 7.71-1.65zm-36.19 122.22q5.73 0 10.53-1.94t8.24-5.43q3.45-3.5 5.39-8.2t1.94-10.23q0-6.02-1.85-10.82-1.84-4.8-5.23-8.15-3.4-3.34-8.15-5.09t-10.48-1.75q-5.72 0-10.38 1.94-4.65 1.94-7.95 5.39-3.3 3.44-5.14 8.15-1.84 4.7-1.84 10.13 0 5.82 1.6 10.62t4.75 8.2 7.81 5.29q4.65 1.89 10.76 1.89m100.79-100.49-4.95 29.19q4.66-.97 8.92-1.4 4.27-.44 8.25-.44 11.06 0 19.5 3.3t14.16 9.12 8.63 13.62q2.91 7.81 2.91 16.83 0 11.16-3.93 20.37-3.93 9.22-10.91 15.77-6.98 6.54-16.54 10.13-9.55 3.59-20.81 3.59-6.59 0-12.51-1.36-5.92-1.35-11.1-3.63-5.19-2.28-9.61-5.24-4.41-2.96-7.9-6.26l7.37-10.18q2.33-3.3 6.11-3.3 2.42 0 4.95 1.55 2.52 1.55 5.77 3.4 3.25 1.84 7.66 3.39t10.62 1.55q6.6 0 11.64-2.13 5.05-2.14 8.39-5.97 3.35-3.83 5.05-9.11 1.69-5.29 1.69-11.5 0-11.45-6.64-17.9t-19.64-6.45q-9.99 0-20.47 3.69l-14.94-4.27 11.64-68.09h69.26v10.18q0 5.14-3.2 8.35-3.2 3.2-10.86 3.2zm175.86 48.4q0 18.33-3.93 31.86-3.93 13.54-10.86 22.36-6.94 8.83-16.4 13.15-9.46 4.31-20.42 4.31t-20.32-4.31q-9.36-4.32-16.25-13.15-6.88-8.82-10.76-22.36-3.88-13.53-3.88-31.86 0-18.43 3.88-31.91 3.88-13.49 10.76-22.31 6.89-8.83 16.25-13.15 9.36-4.31 20.32-4.31t20.42 4.31q9.46 4.32 16.4 13.15 6.93 8.82 10.86 22.31 3.93 13.48 3.93 31.91m-24.74 0q0-15.23-2.23-25.22t-5.96-15.91q-3.74-5.92-8.59-8.29-4.85-2.38-10.09-2.38-5.14 0-9.94 2.38-4.8 2.37-8.49 8.29-3.68 5.92-5.86 15.91-2.19 9.99-2.19 25.22t2.19 25.22q2.18 9.99 5.86 15.91 3.69 5.91 8.49 8.29t9.94 2.38q5.24 0 10.09-2.38t8.59-8.29q3.73-5.92 5.96-15.91t2.23-25.22m178.77 38.02-12.7 12.52-32.89-32.89-33.17 33.08-12.71-12.51 33.18-33.27-31.62-31.63 12.61-12.61 31.62 31.63 31.42-31.43 12.81 12.61-31.53 31.52zm101.95-86.42-4.95 29.19q4.66-.97 8.93-1.4 4.27-.44 8.24-.44 11.06 0 19.5 3.3t14.16 9.12q5.73 5.82 8.63 13.62 2.92 7.81 2.92 16.83 0 11.16-3.93 20.37-3.93 9.22-10.92 15.77-6.98 6.54-16.53 10.13-9.56 3.59-20.81 3.59-6.6 0-12.51-1.36-5.92-1.35-11.11-3.63t-9.6-5.24q-4.42-2.96-7.91-6.26l7.37-10.18q2.33-3.3 6.11-3.3 2.43 0 4.95 1.55t5.77 3.4q3.25 1.84 7.67 3.39 4.41 1.55 10.62 1.55 6.59 0 11.64-2.13 5.04-2.14 8.39-5.97 3.34-3.83 5.04-9.11 1.7-5.29 1.7-11.5 0-11.45-6.65-17.9-6.64-6.45-19.64-6.45-9.99 0-20.46 3.69l-14.94-4.27 11.64-68.09h69.25v10.18q0 5.14-3.2 8.35-3.2 3.2-10.86 3.2zm175.86 48.4q0 18.33-3.93 31.86-3.92 13.54-10.86 22.36-6.94 8.83-16.39 13.15-9.46 4.31-20.42 4.31t-20.32-4.31q-9.36-4.32-16.25-13.15-6.89-8.82-10.77-22.36-3.88-13.53-3.88-31.86 0-18.43 3.88-31.91 3.88-13.49 10.77-22.31 6.89-8.83 16.25-13.15 9.36-4.31 20.32-4.31t20.42 4.31q9.45 4.32 16.39 13.15 6.94 8.82 10.86 22.31 3.93 13.48 3.93 31.91m-24.73 0q0-15.23-2.23-25.22t-5.97-15.91q-3.73-5.92-8.58-8.29-4.85-2.38-10.09-2.38-5.14 0-9.94 2.38-4.81 2.37-8.49 8.29-3.69 5.92-5.87 15.91t-2.18 25.22 2.18 25.22 5.87 15.91q3.68 5.91 8.49 8.29 4.8 2.38 9.94 2.38 5.24 0 10.09-2.38t8.58-8.29q3.74-5.92 5.97-15.91t2.23-25.22m137.25 0q0 18.33-3.93 31.86-3.93 13.54-10.86 22.36-6.94 8.83-16.39 13.15-9.46 4.31-20.42 4.31t-20.32-4.31q-9.36-4.32-16.25-13.15-6.89-8.82-10.77-22.36-3.88-13.53-3.88-31.86 0-18.43 3.88-31.91 3.88-13.49 10.77-22.31 6.89-8.83 16.25-13.15 9.36-4.31 20.32-4.31t20.42 4.31q9.45 4.32 16.39 13.15 6.93 8.82 10.86 22.31 3.93 13.48 3.93 31.91m-24.73 0q0-15.23-2.23-25.22t-5.97-15.91q-3.73-5.92-8.58-8.29-4.85-2.38-10.09-2.38-5.14 0-9.94 2.38-4.81 2.37-8.49 8.29-3.69 5.92-5.87 15.91t-2.18 25.22 2.18 25.22 5.87 15.91q3.68 5.91 8.49 8.29 4.8 2.38 9.94 2.38 5.24 0 10.09-2.38t8.58-8.29q3.74-5.92 5.97-15.91t2.23-25.22"/></svg>